<svg width="50" height="50" viewBox="0 0 36 36" fill="none" xmlns="http://www.w3.org/2000/svg">
<g clip-path="url(#clip0_46_42)">
<path d="M27.5625 0H8.4375C3.7776 0 0 3.7776 0 8.4375V27.5625C0 32.2224 3.7776 36 8.4375 36H27.5625C32.2224 36 36 32.2224 36 27.5625V8.4375C36 3.7776 32.2224 0 27.5625 0Z" fill="#242938"/>
<path d="M18.0001 4.21875C10.2345 4.21875 3.9375 10.5145 3.9375 18.2814C3.9375 24.4946 7.96683 29.7658 13.5544 31.6253C14.2571 31.7555 14.5152 31.3203 14.5152 30.9489C14.5152 30.6135 14.5021 29.5058 14.496 28.3307C10.5839 29.1814 9.75839 26.6715 9.75839 26.6715C9.11855 25.046 8.19689 24.6139 8.19689 24.6139C6.921 23.741 8.29308 23.759 8.29308 23.759C9.70523 23.8582 10.4489 25.2082 10.4489 25.2082C11.7031 27.358 13.7386 26.7365 14.541 26.3772C14.6673 25.4682 15.0317 24.8479 15.4339 24.4967C12.3105 24.1411 9.027 22.9352 9.027 17.5469C9.027 16.0116 9.57628 14.757 10.4759 13.7722C10.3298 13.418 9.84839 11.9877 10.612 10.0507C10.612 10.0507 11.793 9.67289 14.4803 11.4922C15.6021 11.1807 16.805 11.0244 18.0001 11.0191C19.1952 11.0244 20.3992 11.1807 21.5229 11.4923C24.207 9.67275 25.3863 10.0509 25.3863 10.0509C26.1517 11.9877 25.6702 13.4182 25.5241 13.7722C26.4258 14.757 26.9715 16.0116 26.9715 17.5469C26.9715 22.9482 23.6817 24.1374 20.5502 24.4855C21.0547 24.922 21.5041 25.7777 21.5041 27.0897C21.5041 28.9713 21.4878 30.4857 21.4878 30.9489C21.4878 31.3231 21.7409 31.7616 22.4537 31.6235C28.0382 29.7619 32.0625 24.4925 32.0625 18.2814C32.0625 10.5147 25.7663 4.21875 18.0001 4.21875ZM9.20447 24.2512C9.17353 24.3211 9.06356 24.342 8.96344 24.2941C8.86134 24.2482 8.80411 24.1529 8.83716 24.0829C8.86739 24.0109 8.97764 23.9909 9.07931 24.0391C9.18155 24.085 9.23977 24.1812 9.20447 24.2512ZM9.8962 24.8684C9.82912 24.9307 9.69792 24.9017 9.60905 24.8034C9.51708 24.7054 9.49978 24.5744 9.56784 24.5112C9.63689 24.4491 9.76416 24.4782 9.85627 24.5762C9.94823 24.6755 9.96623 24.8055 9.8962 24.8684ZM10.3707 25.6582C10.2845 25.7181 10.1436 25.662 10.0565 25.5368C9.97031 25.4118 9.97031 25.2619 10.0583 25.2017C10.1457 25.1416 10.2845 25.1956 10.3728 25.3198C10.4587 25.4469 10.4587 25.597 10.3707 25.6582ZM11.1732 26.5728C11.0962 26.6577 10.932 26.6349 10.8118 26.5189C10.6889 26.4056 10.6546 26.2447 10.7319 26.1596C10.81 26.0744 10.9751 26.0985 11.0962 26.2135C11.2182 26.3265 11.2555 26.4887 11.1732 26.5728ZM12.2105 26.8815C12.1764 26.9917 12.0184 27.0418 11.859 26.9949C11.7001 26.9467 11.5959 26.8178 11.6281 26.7064C11.6612 26.5956 11.82 26.5434 11.9804 26.5935C12.1393 26.6414 12.2435 26.7695 12.2105 26.8815ZM13.3909 27.0125C13.3948 27.1284 13.2598 27.2246 13.0926 27.2267C12.9244 27.2305 12.7884 27.1365 12.7866 27.0225C12.7866 26.9054 12.9187 26.8102 13.0867 26.8073C13.254 26.8041 13.3909 26.8972 13.3909 27.0125ZM14.5505 26.9681C14.5706 27.0811 14.4544 27.1974 14.2883 27.2284C14.1251 27.2582 13.9739 27.1883 13.9532 27.0761C13.933 26.9601 14.0513 26.8439 14.2142 26.8138C14.3806 26.785 14.5294 26.853 14.5505 26.9681Z" fill="white"/>
</g>
<defs>
<clipPath id="clip0_46_42">
<rect width="36" height="36" fill="white"/>
</clipPath>
</defs>
</svg>
