<svg width="128" height="70" viewBox="0 0 128 70" fill="none" xmlns="http://www.w3.org/2000/svg">
<ellipse cx="108" cy="36.9718" rx="20" ry="21.1972" fill="#705DEC"/>
<ellipse cx="20" cy="21.1972" rx="20" ry="21.1972" fill="#6E46A1"/>
<ellipse cx="74.5" cy="36.9718" rx="31.5" ry="33.0282" fill="#DEC0FE"/>
<path d="M47.5455 29.3952C47.267 28.4274 46.8759 27.5723 46.3722 26.8299C45.8684 26.0742 45.2519 25.4379 44.5227 24.9208C43.8068 24.3905 42.9848 23.9862 42.0568 23.7077C41.142 23.4293 40.1278 23.2901 39.0142 23.2901C36.9328 23.2901 35.1032 23.8072 33.5256 24.8413C31.9612 25.8754 30.7415 27.3801 29.8665 29.3555C28.9915 31.3176 28.554 33.7172 28.554 36.5543C28.554 39.3915 28.9848 41.8043 29.8466 43.793C30.7083 45.7816 31.928 47.2996 33.5057 48.347C35.0833 49.381 36.946 49.8981 39.0938 49.8981C41.0426 49.8981 42.7064 49.5534 44.0852 48.864C45.4773 48.1613 46.5379 47.1737 47.267 45.9009C48.0095 44.6282 48.3807 43.1235 48.3807 41.3867L50.1307 41.6452H39.6307V35.1623H56.6733V40.293C56.6733 43.8725 55.9176 46.9483 54.4062 49.5202C52.8949 52.079 50.8134 54.0543 48.1619 55.4464C45.5104 56.8252 42.4744 57.5146 39.054 57.5146C35.2358 57.5146 31.8816 56.6727 28.9915 54.989C26.1013 53.292 23.8475 50.8858 22.2301 47.7702C20.6259 44.6415 19.8239 40.9293 19.8239 36.6339C19.8239 33.3327 20.3011 30.3896 21.2557 27.8043C22.2235 25.2059 23.5758 23.0051 25.3125 21.2021C27.0492 19.399 29.071 18.0269 31.3778 17.0856C33.6847 16.1443 36.1837 15.6737 38.875 15.6737C41.1818 15.6737 43.3295 16.0117 45.3182 16.6879C47.3068 17.3507 49.0701 18.292 50.608 19.5117C52.1591 20.7314 53.4252 22.1831 54.4062 23.8668C55.3873 25.5373 56.017 27.3801 56.2955 29.3952H47.5455ZM63.1413 56.9577V16.2305H90.1072V23.3299H71.7521V33.0345H88.3175V40.1339H71.7521V56.9577H63.1413Z" fill="white"/>
</svg>
